<mxfile host="Electron" modified="2023-05-24T11:29:54.837Z" agent="Mozilla/5.0 (Windows NT 10.0; Win64; x64) AppleWebKit/537.36 (KHTML, like Gecko) draw.io/21.2.8 Chrome/112.0.5615.165 Electron/24.2.0 Safari/537.36" etag="TaPtncrgQElPWPUmZ0OC" version="21.2.8" type="device">
  <diagram id="C5RBs43oDa-KdzZeNtuy" name="Page-1">
    <mxGraphModel dx="3088" dy="837" grid="1" gridSize="10" guides="1" tooltips="1" connect="1" arrows="1" fold="1" page="1" pageScale="1" pageWidth="1654" pageHeight="1169" math="0" shadow="0">
      <root>
        <mxCell id="WIyWlLk6GJQsqaUBKTNV-0" />
        <mxCell id="WIyWlLk6GJQsqaUBKTNV-1" parent="WIyWlLk6GJQsqaUBKTNV-0" />
        <mxCell id="9_fdUrSxjmN1W93VfHhp-2" value="" style="rounded=0;whiteSpace=wrap;html=1;fillColor=#dae8fc;strokeColor=#6c8ebf;fontFamily=Verdana;" parent="WIyWlLk6GJQsqaUBKTNV-1" vertex="1">
          <mxGeometry x="-625" y="330" width="330" height="457.09" as="geometry" />
        </mxCell>
        <mxCell id="9_fdUrSxjmN1W93VfHhp-0" value="&lt;p style=&quot;margin:0px;margin-top:4px;text-align:center;&quot;&gt;&lt;i&gt;&amp;lt;&amp;lt;enumeration&amp;gt;&amp;gt;&lt;/i&gt;&lt;br&gt;&lt;b&gt;Unit&lt;/b&gt;&lt;/p&gt;&lt;hr size=&quot;1&quot;&gt;&lt;p style=&quot;margin:0px;margin-left:4px;&quot;&gt;&lt;br&gt;&lt;/p&gt;" style="verticalAlign=top;align=left;overflow=fill;fontSize=12;fontFamily=Verdana;html=1;sketch=0;strokeWidth=2;" parent="WIyWlLk6GJQsqaUBKTNV-1" vertex="1">
          <mxGeometry x="-465" y="388.09" width="130" height="80" as="geometry" />
        </mxCell>
        <mxCell id="9_fdUrSxjmN1W93VfHhp-12" value="&lt;p style=&quot;margin:0px;margin-top:4px;text-align:center;&quot;&gt;&lt;b&gt;Identifier&lt;/b&gt;&lt;/p&gt;&lt;hr size=&quot;1&quot;&gt;&lt;p style=&quot;margin:0px;margin-left:4px;&quot;&gt;&lt;br&gt;&lt;/p&gt;" style="verticalAlign=top;align=left;overflow=fill;fontSize=12;fontFamily=Verdana;html=1;sketch=0;strokeWidth=2;" parent="WIyWlLk6GJQsqaUBKTNV-1" vertex="1">
          <mxGeometry x="-605" y="608.59" width="110" height="70" as="geometry" />
        </mxCell>
        <mxCell id="A5fvS7BDDAw0l9XVEY4Y-33" value="&lt;p style=&quot;margin:0px;margin-top:4px;text-align:center;&quot;&gt;&lt;b&gt;EnumeratedItem&lt;/b&gt;&lt;/p&gt;&lt;hr size=&quot;1&quot;&gt;&lt;p style=&quot;margin:0px;margin-left:4px;&quot;&gt;&lt;br&gt;&lt;/p&gt;" style="verticalAlign=top;align=left;overflow=fill;fontSize=12;fontFamily=Verdana;html=1;sketch=0;strokeWidth=2;" parent="WIyWlLk6GJQsqaUBKTNV-1" vertex="1">
          <mxGeometry x="-465" y="603.84" width="140" height="74.75" as="geometry" />
        </mxCell>
        <mxCell id="A5fvS7BDDAw0l9XVEY4Y-54" value="&lt;p style=&quot;margin:0px;margin-top:4px;text-align:center;&quot;&gt;&lt;b&gt;LocalUnit&lt;/b&gt;&lt;/p&gt;&lt;hr size=&quot;1&quot;&gt;&lt;p style=&quot;margin:0px;margin-left:4px;&quot;&gt;&amp;nbsp;&lt;br&gt;&lt;/p&gt;&lt;hr size=&quot;1&quot;&gt;&lt;p style=&quot;margin:0px;margin-left:4px;&quot;&gt;&lt;br&gt;&lt;/p&gt;" style="verticalAlign=top;align=left;overflow=fill;fontSize=12;fontFamily=Verdana;html=1;sketch=0;strokeWidth=2;" parent="WIyWlLk6GJQsqaUBKTNV-1" vertex="1">
          <mxGeometry x="-605" y="508.09" width="110" height="90" as="geometry" />
        </mxCell>
        <mxCell id="A5fvS7BDDAw0l9XVEY4Y-61" value="" style="endArrow=classic;html=1;sketch=0;fontFamily=Verdana;curved=1;" parent="WIyWlLk6GJQsqaUBKTNV-1" source="A5fvS7BDDAw0l9XVEY4Y-54" target="Fh2eQYCEiK_2gspSJ3Qt-0" edge="1">
          <mxGeometry width="50" height="50" relative="1" as="geometry">
            <mxPoint x="-430" y="972.09" as="sourcePoint" />
            <mxPoint x="-515.28" y="527.426" as="targetPoint" />
          </mxGeometry>
        </mxCell>
        <mxCell id="A5fvS7BDDAw0l9XVEY4Y-96" value="" style="swimlane;startSize=0;sketch=0;fontFamily=Verdana;strokeWidth=2;" parent="WIyWlLk6GJQsqaUBKTNV-1" vertex="1">
          <mxGeometry x="-778" y="80" width="228.3" height="100" as="geometry" />
        </mxCell>
        <mxCell id="9_fdUrSxjmN1W93VfHhp-1" value="&lt;h1&gt;&lt;span style=&quot;background-color: initial;&quot;&gt;eCH-0264&lt;/span&gt;&lt;/h1&gt;&lt;div&gt;&lt;br&gt;&lt;/div&gt;" style="text;html=1;strokeColor=none;fillColor=none;spacing=5;spacingTop=-20;whiteSpace=wrap;overflow=hidden;rounded=0;strokeWidth=2;fontFamily=Verdana;" parent="A5fvS7BDDAw0l9XVEY4Y-96" vertex="1">
          <mxGeometry x="15.3" width="195.7" height="80" as="geometry" />
        </mxCell>
        <mxCell id="A5fvS7BDDAw0l9XVEY4Y-100" value="Soil Indicators" style="text;html=1;strokeColor=none;fillColor=none;align=left;verticalAlign=middle;whiteSpace=wrap;rounded=0;strokeWidth=2;fontFamily=Verdana;" parent="A5fvS7BDDAw0l9XVEY4Y-96" vertex="1">
          <mxGeometry x="15.3" y="40" width="226.4" height="30" as="geometry" />
        </mxCell>
        <mxCell id="A5fvS7BDDAw0l9XVEY4Y-97" value="For Visualisation Purposes Only&lt;br&gt;Not purely correct UML!&lt;br&gt;1-1 correspondence to XSD does not exist.&lt;br&gt;(e.g. XSD use will be using &quot;choice,&lt;br&gt;not inheritence or interface)&lt;br&gt;&lt;br&gt;Default Cardinality: 1&lt;br&gt;Attributes not depicted by default" style="text;html=1;strokeColor=none;fillColor=none;align=left;verticalAlign=middle;whiteSpace=wrap;rounded=0;strokeWidth=2;fontFamily=Verdana;" parent="WIyWlLk6GJQsqaUBKTNV-1" vertex="1">
          <mxGeometry x="-539" y="128" width="221" height="30" as="geometry" />
        </mxCell>
        <mxCell id="3pSlS8YH4z9lj6zPETBl-3" value="" style="rounded=0;whiteSpace=wrap;html=1;fillColor=#dae8fc;strokeColor=#6c8ebf;fontFamily=Verdana;" parent="WIyWlLk6GJQsqaUBKTNV-1" vertex="1">
          <mxGeometry x="-1265" y="560" width="430" height="210" as="geometry" />
        </mxCell>
        <mxCell id="3pSlS8YH4z9lj6zPETBl-47" value="&lt;p style=&quot;margin:0px;margin-top:4px;text-align:center;&quot;&gt;&lt;b&gt;Person&lt;/b&gt;&lt;/p&gt;&lt;hr size=&quot;1&quot;&gt;&lt;p style=&quot;margin:0px;margin-left:4px;&quot;&gt;&amp;nbsp;&lt;br&gt;&lt;/p&gt;&lt;hr size=&quot;1&quot;&gt;&lt;p style=&quot;margin:0px;margin-left:4px;&quot;&gt;&lt;br&gt;&lt;/p&gt;" style="verticalAlign=top;align=left;overflow=fill;fontSize=12;fontFamily=Verdana;html=1;sketch=0;strokeWidth=2;" parent="WIyWlLk6GJQsqaUBKTNV-1" vertex="1">
          <mxGeometry x="-465" y="488.09" width="130" height="90" as="geometry" />
        </mxCell>
        <mxCell id="fq_hDrngQvyFMPAxzldU-20" value="&lt;p style=&quot;margin:0px;margin-top:4px;text-align:center;&quot;&gt;&lt;b&gt;SampleSurvey&lt;/b&gt;&lt;/p&gt;&lt;hr size=&quot;1&quot;&gt;&lt;p style=&quot;margin:0px;margin-left:4px;&quot;&gt;&amp;nbsp; &amp;nbsp;&lt;/p&gt;&lt;hr size=&quot;1&quot;&gt;&lt;p style=&quot;margin:0px;margin-left:4px;&quot;&gt;&amp;nbsp;&amp;nbsp;&lt;/p&gt;" style="verticalAlign=top;align=left;overflow=fill;fontSize=12;fontFamily=Verdana;html=1;sketch=0;strokeWidth=2;" parent="WIyWlLk6GJQsqaUBKTNV-1" vertex="1">
          <mxGeometry x="-967.75" y="418.09000000000003" width="189.75" height="90" as="geometry" />
        </mxCell>
        <mxCell id="Fh2eQYCEiK_2gspSJ3Qt-0" value="&lt;p style=&quot;margin:0px;margin-top:4px;text-align:center;&quot;&gt;&lt;b&gt;LegalUnit&lt;/b&gt;&lt;/p&gt;&lt;hr size=&quot;1&quot;&gt;&lt;p style=&quot;margin:0px;margin-left:4px;&quot;&gt;&amp;nbsp;&lt;br&gt;&lt;/p&gt;&lt;hr size=&quot;1&quot;&gt;&lt;p style=&quot;margin:0px;margin-left:4px;&quot;&gt;&lt;br&gt;&lt;/p&gt;" style="verticalAlign=top;align=left;overflow=fill;fontSize=12;fontFamily=Verdana;html=1;sketch=0;strokeWidth=2;" parent="WIyWlLk6GJQsqaUBKTNV-1" vertex="1">
          <mxGeometry x="-605" y="368.90999999999997" width="110" height="90" as="geometry" />
        </mxCell>
        <mxCell id="fq_hDrngQvyFMPAxzldU-75" value="&lt;p style=&quot;margin:0px;margin-top:4px;text-align:center;&quot;&gt;&lt;b&gt;Descriptor&lt;/b&gt;&lt;/p&gt;&lt;hr size=&quot;1&quot;&gt;&lt;p style=&quot;margin:0px;margin-left:4px;&quot;&gt;&lt;br&gt;&lt;/p&gt;" style="verticalAlign=top;align=left;overflow=fill;fontSize=12;fontFamily=Verdana;html=1;sketch=0;strokeWidth=2;" parent="WIyWlLk6GJQsqaUBKTNV-1" vertex="1">
          <mxGeometry x="-602.5" y="698.09" width="107.5" height="80" as="geometry" />
        </mxCell>
        <mxCell id="fq_hDrngQvyFMPAxzldU-76" value="eCH-0261 Local and Legal Units, Common" style="text;html=1;strokeColor=none;fillColor=none;align=left;verticalAlign=middle;whiteSpace=wrap;rounded=0;strokeWidth=2;fontFamily=Verdana;" parent="WIyWlLk6GJQsqaUBKTNV-1" vertex="1">
          <mxGeometry x="-602.5" y="300" width="290" height="87.09" as="geometry" />
        </mxCell>
        <mxCell id="fq_hDrngQvyFMPAxzldU-77" value="eCH-0265 &lt;br&gt;Areas &lt;br&gt;and Crops" style="text;html=1;strokeColor=none;fillColor=none;align=left;verticalAlign=middle;whiteSpace=wrap;rounded=0;strokeWidth=2;fontFamily=Verdana;" parent="WIyWlLk6GJQsqaUBKTNV-1" vertex="1">
          <mxGeometry x="-929.25" y="710" width="104" height="30" as="geometry" />
        </mxCell>
        <mxCell id="fq_hDrngQvyFMPAxzldU-80" value="" style="endArrow=classic;html=1;sketch=0;fontFamily=Verdana;curved=1;exitX=0;exitY=0.5;exitDx=0;exitDy=0;" parent="WIyWlLk6GJQsqaUBKTNV-1" source="A5fvS7BDDAw0l9XVEY4Y-33" target="9_fdUrSxjmN1W93VfHhp-12" edge="1">
          <mxGeometry width="50" height="50" relative="1" as="geometry">
            <mxPoint x="-273.54999999999995" y="728.09" as="sourcePoint" />
            <mxPoint x="-434.9999999999998" y="726.09" as="targetPoint" />
          </mxGeometry>
        </mxCell>
        <mxCell id="fq_hDrngQvyFMPAxzldU-83" value="" style="endArrow=classic;html=1;sketch=0;fontFamily=Verdana;curved=1;entryX=1;entryY=0.5;entryDx=0;entryDy=0;exitX=0.5;exitY=1;exitDx=0;exitDy=0;" parent="WIyWlLk6GJQsqaUBKTNV-1" source="A5fvS7BDDAw0l9XVEY4Y-33" target="fq_hDrngQvyFMPAxzldU-75" edge="1">
          <mxGeometry width="50" height="50" relative="1" as="geometry">
            <mxPoint x="-575" y="898.09" as="sourcePoint" />
            <mxPoint x="-764.7991543340381" y="616.34" as="targetPoint" />
          </mxGeometry>
        </mxCell>
        <mxCell id="fq_hDrngQvyFMPAxzldU-125" value="" style="endArrow=classic;html=1;sketch=0;fontFamily=Verdana;curved=1;exitX=0.782;exitY=1.033;exitDx=0;exitDy=0;exitPerimeter=0;" parent="WIyWlLk6GJQsqaUBKTNV-1" source="Sb41KKKAZoVdsMtPpOg9-5" target="fq_hDrngQvyFMPAxzldU-141" edge="1">
          <mxGeometry width="50" height="50" relative="1" as="geometry">
            <mxPoint x="-1165.23675" y="537.012" as="sourcePoint" />
            <mxPoint x="-798.6483606557379" y="770" as="targetPoint" />
          </mxGeometry>
        </mxCell>
        <mxCell id="fq_hDrngQvyFMPAxzldU-129" style="edgeStyle=elbowEdgeStyle;rounded=0;orthogonalLoop=1;jettySize=auto;html=1;exitX=0.75;exitY=0;exitDx=0;exitDy=0;fontFamily=Verdana;endArrow=block;endFill=0;" parent="WIyWlLk6GJQsqaUBKTNV-1" edge="1">
          <mxGeometry relative="1" as="geometry">
            <mxPoint x="-535" y="270" as="sourcePoint" />
            <mxPoint x="-535" y="270" as="targetPoint" />
          </mxGeometry>
        </mxCell>
        <mxCell id="fq_hDrngQvyFMPAxzldU-130" value="" style="endArrow=classic;html=1;sketch=0;fontFamily=Verdana;curved=1;endFill=1;entryX=0;entryY=0.25;entryDx=0;entryDy=0;" parent="WIyWlLk6GJQsqaUBKTNV-1" source="Sb41KKKAZoVdsMtPpOg9-30" target="Sb41KKKAZoVdsMtPpOg9-31" edge="1">
          <mxGeometry width="50" height="50" relative="1" as="geometry">
            <mxPoint x="-797.5" y="246.3499999999999" as="sourcePoint" />
            <mxPoint x="-590" y="140.75" as="targetPoint" />
          </mxGeometry>
        </mxCell>
        <mxCell id="fq_hDrngQvyFMPAxzldU-141" value="&lt;p style=&quot;margin:0px;margin-top:4px;text-align:center;&quot;&gt;&lt;b&gt;Area&lt;/b&gt;&lt;/p&gt;&lt;hr size=&quot;1&quot;&gt;&lt;p style=&quot;margin:0px;margin-left:4px;&quot;&gt;&amp;nbsp;&lt;br&gt;&lt;/p&gt;&lt;hr size=&quot;1&quot;&gt;&lt;p style=&quot;margin:0px;margin-left:4px;&quot;&gt;&lt;br&gt;&lt;/p&gt;" style="verticalAlign=top;align=left;overflow=fill;fontSize=12;fontFamily=Verdana;html=1;sketch=0;strokeWidth=2;" parent="WIyWlLk6GJQsqaUBKTNV-1" vertex="1">
          <mxGeometry x="-1184.87" y="668.5" width="130" height="90" as="geometry" />
        </mxCell>
        <mxCell id="fq_hDrngQvyFMPAxzldU-142" value="&lt;p style=&quot;margin:0px;margin-top:4px;text-align:center;&quot;&gt;&lt;b&gt;CultivationType&lt;/b&gt;&lt;/p&gt;&lt;hr size=&quot;1&quot;&gt;&lt;p style=&quot;margin:0px;margin-left:4px;&quot;&gt;&amp;nbsp;&lt;br&gt;&lt;/p&gt;&lt;hr size=&quot;1&quot;&gt;&lt;p style=&quot;margin:0px;margin-left:4px;&quot;&gt;&lt;br&gt;&lt;/p&gt;" style="verticalAlign=top;align=left;overflow=fill;fontSize=12;fontFamily=Verdana;html=1;sketch=0;strokeWidth=2;" parent="WIyWlLk6GJQsqaUBKTNV-1" vertex="1">
          <mxGeometry x="-1030" y="570" width="130" height="90" as="geometry" />
        </mxCell>
        <mxCell id="Sb41KKKAZoVdsMtPpOg9-1" value="" style="endArrow=classic;html=1;sketch=0;fontFamily=Verdana;curved=1;exitX=0.208;exitY=1.001;exitDx=0;exitDy=0;exitPerimeter=0;" parent="WIyWlLk6GJQsqaUBKTNV-1" source="fq_hDrngQvyFMPAxzldU-20" target="fq_hDrngQvyFMPAxzldU-142" edge="1">
          <mxGeometry width="50" height="50" relative="1" as="geometry">
            <mxPoint x="-776.4904942965782" y="717" as="sourcePoint" />
            <mxPoint x="-728.3032319391637" y="880" as="targetPoint" />
          </mxGeometry>
        </mxCell>
        <mxCell id="Sb41KKKAZoVdsMtPpOg9-5" value="&lt;p style=&quot;margin:0px;margin-top:4px;text-align:center;&quot;&gt;&lt;b&gt;ConsolidatedSample&lt;/b&gt;&lt;/p&gt;&lt;hr size=&quot;1&quot;&gt;&lt;p style=&quot;margin:0px;margin-left:4px;&quot;&gt;&amp;nbsp;&lt;br&gt;&lt;/p&gt;&lt;hr size=&quot;1&quot;&gt;&lt;p style=&quot;margin:0px;margin-left:4px;&quot;&gt;&lt;br&gt;&lt;/p&gt;" style="verticalAlign=top;align=left;overflow=fill;fontSize=12;fontFamily=Verdana;html=1;sketch=0;strokeWidth=2;" parent="WIyWlLk6GJQsqaUBKTNV-1" vertex="1">
          <mxGeometry x="-1220" y="332" width="200" height="90" as="geometry" />
        </mxCell>
        <mxCell id="Sb41KKKAZoVdsMtPpOg9-12" value="" style="endArrow=classic;html=1;sketch=0;fontFamily=Verdana;curved=1;entryX=-0.003;entryY=0.63;entryDx=0;entryDy=0;entryPerimeter=0;exitX=1.003;exitY=0.671;exitDx=0;exitDy=0;exitPerimeter=0;" parent="WIyWlLk6GJQsqaUBKTNV-1" source="fq_hDrngQvyFMPAxzldU-141" target="A5fvS7BDDAw0l9XVEY4Y-54" edge="1">
          <mxGeometry width="50" height="50" relative="1" as="geometry">
            <mxPoint x="-1095" y="600.6999999999998" as="sourcePoint" />
            <mxPoint x="-897.4965002333179" y="770" as="targetPoint" />
          </mxGeometry>
        </mxCell>
        <mxCell id="Sb41KKKAZoVdsMtPpOg9-14" value="" style="endArrow=classic;html=1;sketch=0;fontFamily=Verdana;curved=1;entryX=0;entryY=0.25;entryDx=0;entryDy=0;exitX=1.007;exitY=0.864;exitDx=0;exitDy=0;exitPerimeter=0;" parent="WIyWlLk6GJQsqaUBKTNV-1" source="fq_hDrngQvyFMPAxzldU-20" target="A5fvS7BDDAw0l9XVEY4Y-54" edge="1">
          <mxGeometry width="50" height="50" relative="1" as="geometry">
            <mxPoint x="-787.4668485102811" y="770" as="sourcePoint" />
            <mxPoint x="-540.3299999999999" y="576.6999999999998" as="targetPoint" />
          </mxGeometry>
        </mxCell>
        <mxCell id="Sb41KKKAZoVdsMtPpOg9-15" value="" style="endArrow=classic;html=1;sketch=0;fontFamily=Verdana;curved=1;entryX=0;entryY=0.5;entryDx=0;entryDy=0;fontStyle=1" parent="WIyWlLk6GJQsqaUBKTNV-1" source="fq_hDrngQvyFMPAxzldU-20" edge="1" target="Fh2eQYCEiK_2gspSJ3Qt-0">
          <mxGeometry width="50" height="50" relative="1" as="geometry">
            <mxPoint x="-806.5844999999999" y="424.6600000000001" as="sourcePoint" />
            <mxPoint x="-554.29" y="430.3499999999999" as="targetPoint" />
          </mxGeometry>
        </mxCell>
        <mxCell id="Sb41KKKAZoVdsMtPpOg9-16" value="" style="endArrow=classic;html=1;sketch=0;fontFamily=Verdana;curved=1;entryX=0;entryY=0.25;entryDx=0;entryDy=0;exitX=1.005;exitY=0.589;exitDx=0;exitDy=0;exitPerimeter=0;" parent="WIyWlLk6GJQsqaUBKTNV-1" source="Sb41KKKAZoVdsMtPpOg9-25" target="Fh2eQYCEiK_2gspSJ3Qt-0" edge="1">
          <mxGeometry width="50" height="50" relative="1" as="geometry">
            <mxPoint x="-727.723" y="510.0100000000002" as="sourcePoint" />
            <mxPoint x="-529.0100000000002" y="447.98" as="targetPoint" />
          </mxGeometry>
        </mxCell>
        <mxCell id="Sb41KKKAZoVdsMtPpOg9-17" value="client" style="text;strokeColor=none;fillColor=none;align=left;verticalAlign=top;spacingLeft=4;spacingRight=4;overflow=hidden;rotatable=0;points=[[0,0.5],[1,0.5]];portConstraint=eastwest;" parent="WIyWlLk6GJQsqaUBKTNV-1" vertex="1">
          <mxGeometry x="-682.5" y="488" width="90" height="26" as="geometry" />
        </mxCell>
        <mxCell id="Sb41KKKAZoVdsMtPpOg9-20" value="contractor&#xa;" style="text;strokeColor=none;fillColor=none;align=left;verticalAlign=top;spacingLeft=4;spacingRight=4;overflow=hidden;rotatable=0;points=[[0,0.5],[1,0.5]];portConstraint=eastwest;" parent="WIyWlLk6GJQsqaUBKTNV-1" vertex="1">
          <mxGeometry x="-690" y="396" width="80" height="26" as="geometry" />
        </mxCell>
        <mxCell id="Sb41KKKAZoVdsMtPpOg9-21" value="analyzedBy&#xa;Laboratory" style="text;strokeColor=none;fillColor=none;align=left;verticalAlign=top;spacingLeft=4;spacingRight=4;overflow=hidden;rotatable=0;points=[[0,0.5],[1,0.5]];portConstraint=eastwest;" parent="WIyWlLk6GJQsqaUBKTNV-1" vertex="1">
          <mxGeometry x="-720" y="307.71" width="80" height="43.5" as="geometry" />
        </mxCell>
        <mxCell id="Sb41KKKAZoVdsMtPpOg9-23" value="&lt;p style=&quot;margin:0px;margin-top:4px;text-align:center;&quot;&gt;&lt;i&gt;&amp;lt;&amp;lt;enumeration&amp;gt;&amp;gt;&lt;/i&gt;&lt;br&gt;&lt;b&gt;Statistical&lt;/b&gt;&lt;b style=&quot;background-color: initial;&quot;&gt;Function&lt;/b&gt;&lt;/p&gt;&lt;hr size=&quot;1&quot;&gt;&lt;p style=&quot;margin:0px;margin-left:4px;&quot;&gt;+ item: EnumeratedItem&lt;br&gt;&lt;/p&gt;&lt;hr size=&quot;1&quot;&gt;&lt;p style=&quot;margin:0px;margin-left:4px;&quot;&gt;&lt;br&gt;&lt;/p&gt;" style="verticalAlign=top;align=left;overflow=fill;fontSize=12;fontFamily=Verdana;html=1;sketch=0;strokeWidth=2;" parent="WIyWlLk6GJQsqaUBKTNV-1" vertex="1">
          <mxGeometry x="-1300" y="451.09" width="190" height="80" as="geometry" />
        </mxCell>
        <mxCell id="Sb41KKKAZoVdsMtPpOg9-25" value="&lt;p style=&quot;margin:0px;margin-top:4px;text-align:center;&quot;&gt;&lt;b&gt;Analysis&lt;/b&gt;&lt;/p&gt;&lt;hr size=&quot;1&quot;&gt;&lt;p style=&quot;margin:0px;margin-left:4px;&quot;&gt;+ value: decimal&lt;/p&gt;&lt;p style=&quot;margin:0px;margin-left:4px;&quot;&gt;+ unit: Unit&lt;/p&gt;&lt;hr size=&quot;1&quot;&gt;&lt;p style=&quot;margin:0px;margin-left:4px;&quot;&gt;&amp;nbsp;&amp;nbsp;&lt;/p&gt;" style="verticalAlign=top;align=left;overflow=fill;fontSize=12;fontFamily=Verdana;html=1;sketch=0;strokeWidth=2;" parent="WIyWlLk6GJQsqaUBKTNV-1" vertex="1">
          <mxGeometry x="-1124.87" y="190" width="189.75" height="85" as="geometry" />
        </mxCell>
        <mxCell id="Sb41KKKAZoVdsMtPpOg9-27" value="&lt;p style=&quot;margin:0px;margin-top:4px;text-align:center;&quot;&gt;&lt;i&gt;&amp;lt;&amp;lt;enumeration&amp;gt;&amp;gt;&lt;/i&gt;&lt;br&gt;&lt;b&gt;AnalysisMethodCharacteristic&lt;/b&gt;&lt;/p&gt;&lt;hr size=&quot;1&quot;&gt;&lt;p style=&quot;margin:0px;margin-left:4px;&quot;&gt;+ item: EnumeratedItem&lt;br&gt;&lt;/p&gt;&lt;hr size=&quot;1&quot;&gt;&lt;p style=&quot;margin:0px;margin-left:4px;&quot;&gt;&lt;br&gt;&lt;/p&gt;" style="verticalAlign=top;align=left;overflow=fill;fontSize=12;fontFamily=Verdana;html=1;sketch=0;strokeWidth=2;" parent="WIyWlLk6GJQsqaUBKTNV-1" vertex="1">
          <mxGeometry x="-1350" y="80.53999999999999" width="220" height="78.91" as="geometry" />
        </mxCell>
        <mxCell id="Sb41KKKAZoVdsMtPpOg9-28" value="&lt;p style=&quot;margin:0px;margin-top:4px;text-align:center;&quot;&gt;&lt;i&gt;&amp;lt;&amp;lt;enumeration&amp;gt;&amp;gt;&lt;/i&gt;&lt;br&gt;&lt;b&gt;AnalysisMethod&lt;/b&gt;&lt;/p&gt;&lt;hr size=&quot;1&quot;&gt;&lt;p style=&quot;margin:0px;margin-left:4px;&quot;&gt;+ item: EnumeratedItem&lt;br&gt;&lt;/p&gt;&lt;hr size=&quot;1&quot;&gt;&lt;p style=&quot;margin:0px;margin-left:4px;&quot;&gt;&lt;br&gt;&lt;/p&gt;" style="verticalAlign=top;align=left;overflow=fill;fontSize=12;fontFamily=Verdana;html=1;sketch=0;strokeWidth=2;" parent="WIyWlLk6GJQsqaUBKTNV-1" vertex="1">
          <mxGeometry x="-1390.25" y="193.04" width="177.38" height="78.91" as="geometry" />
        </mxCell>
        <mxCell id="Sb41KKKAZoVdsMtPpOg9-30" value="&lt;p style=&quot;margin:0px;margin-top:4px;text-align:center;&quot;&gt;&lt;i&gt;&amp;lt;&amp;lt;enumeration&amp;gt;&amp;gt;&lt;/i&gt;&lt;br&gt;&lt;b&gt;AnalysisParameter&lt;/b&gt;&lt;/p&gt;&lt;hr size=&quot;1&quot;&gt;&lt;p style=&quot;margin:0px;margin-left:4px;&quot;&gt;+ item: EnumeratedItem&lt;br&gt;&lt;/p&gt;&lt;hr size=&quot;1&quot;&gt;&lt;p style=&quot;margin:0px;margin-left:4px;&quot;&gt;&lt;br&gt;&lt;/p&gt;" style="verticalAlign=top;align=left;overflow=fill;fontSize=12;fontFamily=Verdana;html=1;sketch=0;strokeWidth=2;" parent="WIyWlLk6GJQsqaUBKTNV-1" vertex="1">
          <mxGeometry x="-1010" y="80.54" width="184.75" height="78.91" as="geometry" />
        </mxCell>
        <mxCell id="Sb41KKKAZoVdsMtPpOg9-31" value="&lt;p style=&quot;margin:0px;margin-top:4px;text-align:center;&quot;&gt;&lt;i&gt;&amp;lt;&amp;lt;enumeration&amp;gt;&amp;gt;&lt;/i&gt;&lt;br&gt;&lt;b&gt;AnalysisParameterGroup&lt;/b&gt;&lt;/p&gt;&lt;hr size=&quot;1&quot;&gt;&lt;p style=&quot;margin:0px;margin-left:4px;&quot;&gt;+ item: EnumeratedItem&lt;br&gt;&lt;/p&gt;&lt;hr size=&quot;1&quot;&gt;&lt;p style=&quot;margin:0px;margin-left:4px;&quot;&gt;&lt;br&gt;&lt;/p&gt;" style="verticalAlign=top;align=left;overflow=fill;fontSize=12;fontFamily=Verdana;html=1;sketch=0;strokeWidth=2;" parent="WIyWlLk6GJQsqaUBKTNV-1" vertex="1">
          <mxGeometry x="-810" y="205.55" width="230" height="78.91" as="geometry" />
        </mxCell>
        <mxCell id="Sb41KKKAZoVdsMtPpOg9-33" value="" style="endArrow=classic;html=1;sketch=0;fontFamily=Verdana;curved=1;endFill=1;entryX=0.097;entryY=0.978;entryDx=0;entryDy=0;entryPerimeter=0;" parent="WIyWlLk6GJQsqaUBKTNV-1" source="Sb41KKKAZoVdsMtPpOg9-25" target="Sb41KKKAZoVdsMtPpOg9-30" edge="1">
          <mxGeometry width="50" height="50" relative="1" as="geometry">
            <mxPoint x="-1116.9555246985578" y="232" as="sourcePoint" />
            <mxPoint x="-707.6142500000001" y="272" as="targetPoint" />
          </mxGeometry>
        </mxCell>
        <mxCell id="Sb41KKKAZoVdsMtPpOg9-34" value="" style="endArrow=classic;html=1;sketch=0;fontFamily=Verdana;curved=1;endFill=1;" parent="WIyWlLk6GJQsqaUBKTNV-1" source="Sb41KKKAZoVdsMtPpOg9-25" target="Sb41KKKAZoVdsMtPpOg9-27" edge="1">
          <mxGeometry width="50" height="50" relative="1" as="geometry">
            <mxPoint x="-1371.31" y="232" as="sourcePoint" />
            <mxPoint x="-950.2665000000002" y="209.96308" as="targetPoint" />
          </mxGeometry>
        </mxCell>
        <mxCell id="Sb41KKKAZoVdsMtPpOg9-35" value="" style="endArrow=classic;html=1;sketch=0;fontFamily=Verdana;curved=1;endFill=1;exitX=0;exitY=0.5;exitDx=0;exitDy=0;" parent="WIyWlLk6GJQsqaUBKTNV-1" source="Sb41KKKAZoVdsMtPpOg9-25" target="Sb41KKKAZoVdsMtPpOg9-28" edge="1">
          <mxGeometry width="50" height="50" relative="1" as="geometry">
            <mxPoint x="-1142.3125" y="303.9100000000001" as="sourcePoint" />
            <mxPoint x="-1194.3604841335623" y="258.9100000000001" as="targetPoint" />
          </mxGeometry>
        </mxCell>
        <mxCell id="MBOvnF1T2js4AdL0ZzH9-0" value="" style="endArrow=classic;html=1;sketch=0;fontFamily=Verdana;curved=1;" parent="WIyWlLk6GJQsqaUBKTNV-1" source="Sb41KKKAZoVdsMtPpOg9-5" target="Sb41KKKAZoVdsMtPpOg9-23" edge="1">
          <mxGeometry width="50" height="50" relative="1" as="geometry">
            <mxPoint x="-1327.37" y="625" as="sourcePoint" />
            <mxPoint x="-1084" y="530" as="targetPoint" />
          </mxGeometry>
        </mxCell>
        <mxCell id="MBOvnF1T2js4AdL0ZzH9-1" value="" style="endArrow=classic;html=1;sketch=0;fontFamily=Verdana;curved=1;entryX=0.004;entryY=0.133;entryDx=0;entryDy=0;entryPerimeter=0;fontStyle=1" parent="WIyWlLk6GJQsqaUBKTNV-1" source="fq_hDrngQvyFMPAxzldU-20" target="3pSlS8YH4z9lj6zPETBl-47" edge="1">
          <mxGeometry width="50" height="50" relative="1" as="geometry">
            <mxPoint x="-796.5844999999999" y="434.6600000000001" as="sourcePoint" />
            <mxPoint x="-544.29" y="440.3499999999999" as="targetPoint" />
          </mxGeometry>
        </mxCell>
        <mxCell id="MBOvnF1T2js4AdL0ZzH9-2" value="sampler" style="text;strokeColor=none;fillColor=none;align=left;verticalAlign=top;spacingLeft=4;spacingRight=4;overflow=hidden;rotatable=0;points=[[0,0.5],[1,0.5]];portConstraint=eastwest;" parent="WIyWlLk6GJQsqaUBKTNV-1" vertex="1">
          <mxGeometry x="-690" y="451.09" width="80" height="26" as="geometry" />
        </mxCell>
        <mxCell id="MBOvnF1T2js4AdL0ZzH9-7" value="" style="endArrow=diamondThin;endFill=1;endSize=24;html=1;rounded=0;exitX=0;exitY=0.648;exitDx=0;exitDy=0;exitPerimeter=0;" parent="WIyWlLk6GJQsqaUBKTNV-1" source="fq_hDrngQvyFMPAxzldU-20" target="Sb41KKKAZoVdsMtPpOg9-5" edge="1">
          <mxGeometry width="160" relative="1" as="geometry">
            <mxPoint x="-960" y="438" as="sourcePoint" />
            <mxPoint x="-1139.81025" y="484.01999999999975" as="targetPoint" />
          </mxGeometry>
        </mxCell>
        <mxCell id="MBOvnF1T2js4AdL0ZzH9-10" value="" style="endArrow=diamondThin;endFill=1;endSize=24;html=1;rounded=0;exitX=0.879;exitY=0;exitDx=0;exitDy=0;exitPerimeter=0;entryX=0.569;entryY=1.002;entryDx=0;entryDy=0;entryPerimeter=0;" parent="WIyWlLk6GJQsqaUBKTNV-1" source="Sb41KKKAZoVdsMtPpOg9-5" target="Sb41KKKAZoVdsMtPpOg9-25" edge="1">
          <mxGeometry width="160" relative="1" as="geometry">
            <mxPoint x="-1191.92" y="547.3900000000001" as="sourcePoint" />
            <mxPoint x="-1074" y="360" as="targetPoint" />
          </mxGeometry>
        </mxCell>
        <mxCell id="MBOvnF1T2js4AdL0ZzH9-12" value="&lt;p style=&quot;margin:0px;margin-top:4px;text-align:center;&quot;&gt;&lt;b&gt;Sample&lt;/b&gt;&lt;/p&gt;&lt;hr size=&quot;1&quot;&gt;&lt;p style=&quot;margin:0px;margin-left:4px;&quot;&gt;&amp;nbsp; &amp;nbsp;&lt;/p&gt;&lt;hr size=&quot;1&quot;&gt;&lt;p style=&quot;margin:0px;margin-left:4px;&quot;&gt;&amp;nbsp;&amp;nbsp;&lt;/p&gt;" style="verticalAlign=top;align=left;overflow=fill;fontSize=12;fontFamily=Verdana;html=1;sketch=0;strokeWidth=2;" parent="WIyWlLk6GJQsqaUBKTNV-1" vertex="1">
          <mxGeometry x="-1537.38" y="422" width="189.75" height="92" as="geometry" />
        </mxCell>
        <mxCell id="MBOvnF1T2js4AdL0ZzH9-13" value="" style="endArrow=classic;html=1;sketch=0;fontFamily=Verdana;curved=1;" parent="WIyWlLk6GJQsqaUBKTNV-1" source="Sb41KKKAZoVdsMtPpOg9-5" target="MBOvnF1T2js4AdL0ZzH9-12" edge="1">
          <mxGeometry width="50" height="50" relative="1" as="geometry">
            <mxPoint x="-1317.37" y="635" as="sourcePoint" />
            <mxPoint x="-1490" y="589" as="targetPoint" />
          </mxGeometry>
        </mxCell>
        <mxCell id="MBOvnF1T2js4AdL0ZzH9-16" value="" style="endArrow=diamondThin;endFill=1;endSize=24;html=1;rounded=0;exitX=0.779;exitY=-0.02;exitDx=0;exitDy=0;exitPerimeter=0;entryX=0;entryY=1;entryDx=0;entryDy=0;" parent="WIyWlLk6GJQsqaUBKTNV-1" source="MBOvnF1T2js4AdL0ZzH9-12" target="Sb41KKKAZoVdsMtPpOg9-25" edge="1">
          <mxGeometry width="160" relative="1" as="geometry">
            <mxPoint x="-1236" y="563" as="sourcePoint" />
            <mxPoint x="-1062" y="365" as="targetPoint" />
          </mxGeometry>
        </mxCell>
        <mxCell id="MBOvnF1T2js4AdL0ZzH9-17" value="0-1" style="text;strokeColor=none;fillColor=none;align=left;verticalAlign=top;spacingLeft=4;spacingRight=4;overflow=hidden;rotatable=0;points=[[0,0.5],[1,0.5]];portConstraint=eastwest;" parent="WIyWlLk6GJQsqaUBKTNV-1" vertex="1">
          <mxGeometry x="-1140" y="284.46" width="40" height="26" as="geometry" />
        </mxCell>
        <mxCell id="MBOvnF1T2js4AdL0ZzH9-18" value="1-*" style="text;strokeColor=none;fillColor=none;align=left;verticalAlign=top;spacingLeft=4;spacingRight=4;overflow=hidden;rotatable=0;points=[[0,0.5],[1,0.5]];portConstraint=eastwest;" parent="WIyWlLk6GJQsqaUBKTNV-1" vertex="1">
          <mxGeometry x="-1340" y="412" width="40" height="26" as="geometry" />
        </mxCell>
        <mxCell id="MBOvnF1T2js4AdL0ZzH9-19" value="&lt;p style=&quot;margin:0px;margin-top:4px;text-align:center;&quot;&gt;&lt;i&gt;&amp;lt;&amp;lt;enumeration&amp;gt;&amp;gt;&lt;/i&gt;&lt;br&gt;&lt;b&gt;SampleCategory&lt;/b&gt;&lt;/p&gt;&lt;hr size=&quot;1&quot;&gt;&lt;p style=&quot;margin:0px;margin-left:4px;&quot;&gt;+ item: EnumeratedItem&lt;br&gt;&lt;/p&gt;&lt;hr size=&quot;1&quot;&gt;&lt;p style=&quot;margin:0px;margin-left:4px;&quot;&gt;&lt;br&gt;&lt;/p&gt;" style="verticalAlign=top;align=left;overflow=fill;fontSize=12;fontFamily=Verdana;html=1;sketch=0;strokeWidth=2;" parent="WIyWlLk6GJQsqaUBKTNV-1" vertex="1">
          <mxGeometry x="-1537.3799999999999" y="289.9999999999999" width="177.38" height="78.91" as="geometry" />
        </mxCell>
        <mxCell id="MBOvnF1T2js4AdL0ZzH9-20" value="" style="endArrow=classic;html=1;sketch=0;fontFamily=Verdana;curved=1;endFill=1;exitX=0.467;exitY=-0.022;exitDx=0;exitDy=0;exitPerimeter=0;" parent="WIyWlLk6GJQsqaUBKTNV-1" source="MBOvnF1T2js4AdL0ZzH9-12" target="MBOvnF1T2js4AdL0ZzH9-19" edge="1">
          <mxGeometry width="50" height="50" relative="1" as="geometry">
            <mxPoint x="-1090" y="272" as="sourcePoint" />
            <mxPoint x="-1273" y="304" as="targetPoint" />
          </mxGeometry>
        </mxCell>
        <mxCell id="Znoq4t9jG38iK8YFyBJu-0" value="0-1" style="text;strokeColor=none;fillColor=none;align=left;verticalAlign=top;spacingLeft=4;spacingRight=4;overflow=hidden;rotatable=0;points=[[0,0.5],[1,0.5]];portConstraint=eastwest;" parent="WIyWlLk6GJQsqaUBKTNV-1" vertex="1">
          <mxGeometry x="-495" y="474.09" width="40" height="26" as="geometry" />
        </mxCell>
        <mxCell id="P-oP96jhjo4WBsqlMUG_-0" value="" style="endArrow=classic;html=1;sketch=0;fontFamily=Verdana;curved=1;entryX=0;entryY=0.5;entryDx=0;entryDy=0;" edge="1" parent="WIyWlLk6GJQsqaUBKTNV-1" source="MBOvnF1T2js4AdL0ZzH9-12" target="fq_hDrngQvyFMPAxzldU-141">
          <mxGeometry width="50" height="50" relative="1" as="geometry">
            <mxPoint x="-1207" y="640" as="sourcePoint" />
            <mxPoint x="-972" y="760" as="targetPoint" />
          </mxGeometry>
        </mxCell>
        <mxCell id="P-oP96jhjo4WBsqlMUG_-1" value="0-1" style="text;strokeColor=none;fillColor=none;align=left;verticalAlign=top;spacingLeft=4;spacingRight=4;overflow=hidden;rotatable=0;points=[[0,0.5],[1,0.5]];portConstraint=eastwest;" vertex="1" parent="WIyWlLk6GJQsqaUBKTNV-1">
          <mxGeometry x="-1236" y="697.5" width="40" height="26" as="geometry" />
        </mxCell>
        <mxCell id="P-oP96jhjo4WBsqlMUG_-3" value="&lt;p style=&quot;margin:0px;margin-top:4px;text-align:center;&quot;&gt;&lt;i&gt;&amp;lt;&amp;lt;enumeration&amp;gt;&amp;gt;&lt;/i&gt;&lt;br&gt;&lt;b&gt;SampleSurvey&lt;/b&gt;&lt;/p&gt;&lt;p style=&quot;margin:0px;margin-top:4px;text-align:center;&quot;&gt;&lt;b&gt;Category&lt;/b&gt;&lt;/p&gt;&lt;hr size=&quot;1&quot;&gt;&lt;p style=&quot;margin:0px;margin-left:4px;&quot;&gt;+ item: EnumeratedItem&lt;br&gt;&lt;/p&gt;&lt;hr size=&quot;1&quot;&gt;&lt;p style=&quot;margin:0px;margin-left:4px;&quot;&gt;&lt;br&gt;&lt;/p&gt;" style="verticalAlign=top;align=left;overflow=fill;fontSize=12;fontFamily=Verdana;html=1;sketch=0;strokeWidth=2;" vertex="1" parent="WIyWlLk6GJQsqaUBKTNV-1">
          <mxGeometry x="-987.38" y="300" width="167.38" height="90" as="geometry" />
        </mxCell>
        <mxCell id="P-oP96jhjo4WBsqlMUG_-4" value="" style="endArrow=classic;html=1;sketch=0;fontFamily=Verdana;curved=1;endFill=1;entryX=0.5;entryY=1;entryDx=0;entryDy=0;" edge="1" parent="WIyWlLk6GJQsqaUBKTNV-1" source="fq_hDrngQvyFMPAxzldU-20" target="P-oP96jhjo4WBsqlMUG_-3">
          <mxGeometry width="50" height="50" relative="1" as="geometry">
            <mxPoint x="-1439" y="430" as="sourcePoint" />
            <mxPoint x="-1439" y="379" as="targetPoint" />
          </mxGeometry>
        </mxCell>
      </root>
    </mxGraphModel>
  </diagram>
</mxfile>
